<svg width="100" height="101" viewBox="0 0 100 101" fill="none" xmlns="http://www.w3.org/2000/svg">
<path d="M23.0403 100.826C18.6589 100.826 14.2364 99.5382 10.3718 96.8566L9.55777 96.291C-0.525163 89.2891 -3.03294 75.3873 3.96901 65.3044L25.2066 36.9673C28.5345 32.1713 33.6248 28.8998 39.4773 27.8448C45.3298 26.7868 51.2417 28.0765 56.1261 31.4685L56.9402 32.0326C61.0868 34.9108 64.1586 39.1611 65.5917 43.9998C66.0688 45.6142 65.148 47.3109 63.5321 47.7881C61.9192 48.2622 60.2224 47.346 59.7437 45.7285C58.6903 42.1658 56.5179 39.1611 53.4644 37.042L52.6503 36.478C49.1013 34.0129 44.8053 33.0768 40.5596 33.8452C36.3109 34.612 32.614 36.9871 30.1505 40.5346L8.91443 68.8702C3.89431 76.1023 5.71454 86.1959 13.0366 91.2816L13.8507 91.8472C21.1698 96.9298 31.2649 95.1126 36.3505 87.792L42.8387 78.4531C43.8007 77.0734 45.6972 76.7319 47.0829 77.6893C48.4641 78.6512 48.8071 80.5507 47.8467 81.9335L41.3585 91.2709C37.0396 97.4908 30.0941 100.826 23.0403 100.826Z" fill="white"/>
<path d="M56.5426 73.3445C52.1567 73.3445 47.725 72.0578 43.8544 69.3717L43.0342 68.8C38.8906 65.9218 35.8219 61.6746 34.3919 56.8404C33.9147 55.2245 34.837 53.5293 36.4515 53.0521C38.072 52.5749 39.7642 53.4957 40.2398 55.1117C41.2917 58.6713 43.4626 61.6746 46.5161 63.7951L47.3363 64.3668C54.6523 69.4464 64.7474 67.6262 69.8331 60.3056L91.0691 31.9655C96.0907 24.7333 94.2705 14.6397 86.9484 9.55404L86.1404 8.9976C82.5854 6.52642 78.2939 5.59496 74.0422 6.35873C69.7934 7.12554 66.0966 9.50068 63.633 13.0482L57.1463 22.3856C56.1859 23.7698 54.2864 24.1113 52.9037 23.1509C51.521 22.1905 51.178 20.291 52.1384 18.9083L58.6251 9.57081C62.017 4.68484 67.1073 1.4133 72.9613 0.358363C78.8123 -0.695055 84.7272 0.591608 89.6117 3.98511L90.4181 4.54154C100.51 11.5511 103.016 25.4529 96.013 35.5343L74.777 63.8744C70.5008 70.0287 63.5812 73.3445 56.5426 73.3445Z" fill="white"/>
<path d="M75.5421 45.9999C75.2235 45.9999 74.9033 45.9008 74.6289 45.695C73.9551 45.1904 73.8179 44.2346 74.324 43.5623L75.1594 42.4494C75.6641 41.7756 76.6214 41.6414 77.2922 42.1445C77.966 42.6491 78.1032 43.605 77.5971 44.2772L76.7617 45.3901C76.4629 45.7911 76.0055 45.9999 75.5421 45.9999Z" fill="white"/>
<path d="M79.0287 41.35C78.71 41.35 78.3899 41.2509 78.1155 41.0451C77.4417 40.5405 77.3045 39.5847 77.8106 38.9124L84.558 29.9118C86.1754 27.5824 86.8005 24.7072 86.2867 21.8625C85.773 19.0163 84.1829 16.5406 81.8078 14.8926L81.2849 14.5313C80.5928 14.0511 80.4205 13.1013 80.8992 12.4092C81.3764 11.7171 82.3261 11.5433 83.0213 12.0235L83.5457 12.3864C86.5901 14.5008 88.6283 17.6733 89.2869 21.3198C89.9455 24.9664 89.1436 28.6526 87.0307 31.6955L80.2513 40.7417C79.9494 41.1396 79.4936 41.35 79.0287 41.35Z" fill="white"/>
</svg>
